<?xml version="1.0" standalone="no"?>
<!DOCTYPE svg PUBLIC "-//W3C//DTD SVG 20010904//EN"
 "http://www.w3.org/TR/2001/REC-SVG-20010904/DTD/svg10.dtd">
<svg version="1.0" xmlns="http://www.w3.org/2000/svg"
 width="500.000000pt" height="150.000000pt" viewBox="0 0 500.000000 150.000000"
 preserveAspectRatio="xMidYMid meet">

<g transform="translate(0.000000,150.000000) scale(0.100000,-0.100000)"
fill="#000000" stroke="none">
<path d="M2230 1285 c-97 -19 -216 -61 -300 -106 -123 -66 -123 -69 14 -69
l118 0 63 59 c36 33 95 75 136 95 76 38 72 42 -31 21z"/>
<path d="M2429 1289 c-83 -12 -179 -54 -244 -107 -32 -26 -60 -53 -63 -59 -3
-10 39 -13 187 -13 l191 0 0 95 c0 52 -3 94 -7 94 -5 -1 -33 -5 -64 -10z"/>
<path d="M2540 1205 l0 -95 190 0 c109 0 190 4 190 9 0 13 -76 76 -125 106
-51 29 -145 61 -207 69 l-48 6 0 -95z"/>
<path d="M2779 1264 c41 -20 100 -62 136 -95 l63 -59 118 0 c137 0 137 3 14
69 -86 46 -202 86 -308 107 -103 20 -104 19 -23 -22z"/>
<path d="M1761 1056 l-32 -33 125 -51 125 -50 12 36 c6 21 22 58 36 85 l23 47
-128 0 -128 0 -33 -34z"/>
<path d="M2066 1053 c-30 -46 -58 -122 -52 -140 9 -23 26 -14 26 15 0 34 33
88 58 96 11 4 19 14 18 24 0 9 6 17 14 17 8 0 15 -8 15 -17 0 -10 10 -25 23
-33 28 -20 54 -69 46 -89 -11 -29 5 -34 73 -21 38 7 101 18 141 25 l72 12 0
74 0 74 -205 0 -205 0 -24 -37z"/>
<path d="M2540 1019 l0 -71 28 5 c15 3 115 20 222 37 107 18 197 34 198 35 2
2 -4 17 -14 34 l-18 31 -208 0 -208 0 0 -71z"/>
<path d="M3005 1060 c12 -23 21 -29 38 -26 12 3 54 10 92 16 108 16 126 21
119 31 -3 5 -64 9 -135 9 l-130 0 16 -30z"/>
<path d="M1417 830 c3 -11 7 -20 8 -20 1 0 5 9 8 20 3 12 0 20 -8 20 -8 0 -11
-8 -8 -20z"/>
<path d="M1516 819 c3 -41 14 -50 14 -11 0 17 -4 33 -8 36 -4 3 -7 -9 -6 -25z"/>
<path d="M1822 830 c14 -22 24 -19 15 5 -4 8 -11 15 -17 15 -6 0 -6 -7 2 -20z"/>
<path d="M1910 835 c7 -9 15 -13 17 -11 7 7 -7 26 -19 26 -6 0 -6 -6 2 -15z"/>
<path d="M1986 819 c3 -41 14 -50 14 -11 0 17 -4 33 -8 36 -4 3 -7 -9 -6 -25z"/>
<path d="M1581 824 c0 -11 3 -14 6 -6 3 7 2 16 -1 19 -3 4 -6 -2 -5 -13z"/>
<path d="M1641 813 c-1 -25 3 -33 17 -33 11 0 13 3 6 8 -7 4 -14 18 -17 32 -4
21 -4 20 -6 -7z"/>
<path d="M1742 815 c0 -16 2 -22 5 -12 2 9 2 23 0 30 -3 6 -5 -1 -5 -18z"/>
<path d="M1561 814 c0 -11 3 -14 6 -6 3 7 2 16 -1 19 -3 4 -6 -2 -5 -13z"/>
<path d="M1782 810 c0 -14 2 -19 5 -12 2 6 2 18 0 25 -3 6 -5 1 -5 -13z"/>
<path d="M1872 810 c0 -14 2 -19 5 -12 2 6 2 18 0 25 -3 6 -5 1 -5 -13z"/>
<path d="M1393 806 c1 -11 9 -21 17 -23 10 -3 11 -2 4 4 -6 4 -14 15 -17 23
-5 11 -6 9 -4 -4z"/>
<path d="M1578 783 c7 -3 16 -2 19 1 4 3 -2 6 -13 5 -11 0 -14 -3 -6 -6z"/>
<path d="M1870 724 c-201 -37 -192 -34 -185 -63 3 -14 30 -50 58 -79 l52 -53
117 3 c64 2 119 5 122 8 3 3 -6 28 -19 56 -13 27 -29 71 -35 97 -7 26 -17 47
-24 46 -6 0 -45 -7 -86 -15z"/>
<path d="M2000 727 c0 -19 10 -27 26 -20 21 8 17 33 -6 33 -11 0 -20 -6 -20
-13z"/>
<path d="M2210 726 c0 -9 7 -16 16 -16 12 0 14 -5 8 -17 -15 -34 -17 -145 -2
-154 7 -5 70 -9 141 -9 l127 0 0 74 0 74 -67 15 c-38 9 -95 21 -128 27 -33 6
-68 14 -77 16 -12 4 -18 0 -18 -10z"/>
<path d="M2015 670 c10 -35 25 -49 25 -23 0 11 -7 27 -16 34 -15 12 -16 11 -9
-11z"/>
<path d="M2540 600 l0 -70 206 0 c185 0 208 2 220 18 7 9 14 20 14 24 0 4 -33
14 -72 22 -40 8 -137 29 -215 46 -78 16 -144 30 -147 30 -3 0 -6 -31 -6 -70z"/>
<path d="M3000 551 c-10 -21 -9 -21 80 -21 49 0 90 2 90 4 0 3 -26 10 -57 16
-32 6 -68 14 -80 17 -15 3 -25 -2 -33 -16z"/>
<path d="M1850 489 c23 -19 152 -89 165 -89 3 0 5 25 5 55 l0 55 -97 0 -98 -1
25 -20z"/>
<path d="M2230 455 l0 -55 48 -24 c49 -24 162 -56 200 -56 21 0 22 4 22 95 l0
95 -135 0 -135 0 0 -55z"/>
<path d="M2540 415 c0 -88 2 -95 20 -95 43 0 129 24 195 55 67 31 175 109 175
127 0 4 -88 8 -195 8 l-195 0 0 -95z"/>
<path d="M2945 478 c-38 -45 -120 -106 -180 -134 l-50 -24 40 6 c149 21 360
100 435 163 l25 20 -122 1 -121 0 -27 -32z"/>
<path d="M2230 345 c0 -9 9 -15 23 -15 12 0 33 -3 47 -6 14 -3 5 4 -19 15 -52
25 -51 25 -51 6z"/>
</g>
</svg>
